<svg xmlns="http://www.w3.org/2000/svg" version="1.1" width="512px" height="512px" xmlns:xlink="http://www.w3.org/1999/xlink">
<g><path style="opacity:1" fill="#fde7c2" d="M 376.5,272.5 C 370.968,296.23 360.135,317.23 344,335.5C 343.652,337.14 344.152,338.473 345.5,339.5C 346.167,340.5 346.833,341.5 347.5,342.5C 304.813,378.169 258.147,384.502 207.5,361.5C 204.908,363.026 203.908,365.359 204.5,368.5C 183.707,358.211 167.54,342.877 156,322.5C 149.717,310.956 144.884,298.956 141.5,286.5C 138.642,273.077 137.975,259.41 139.5,245.5C 139.286,243.856 139.62,242.356 140.5,241C 138.187,240.338 135.854,239.838 133.5,239.5C 144.541,188.955 174.874,156.122 224.5,141C 227.432,140.047 230.432,139.547 233.5,139.5C 233.5,136.833 233.5,134.167 233.5,131.5C 289.631,127.396 331.964,149.396 360.5,197.5C 362.707,195.69 365.041,195.357 367.5,196.5C 377.617,221.006 380.617,246.34 376.5,272.5 Z"/></g>
<g><path style="opacity:1" fill="#dea13f" d="M 345.5,236.5 C 344.842,235.602 344.176,234.602 343.5,233.5C 341.929,234.309 340.262,234.643 338.5,234.5C 325.396,196.063 298.729,174.063 258.5,168.5C 258.5,166.833 258.5,165.167 258.5,163.5C 298.729,169.063 325.396,191.063 338.5,229.5C 340.262,229.643 341.929,229.309 343.5,228.5C 345.054,230.933 345.72,233.6 345.5,236.5 Z"/></g>
<g><path style="opacity:1" fill="#dea13f" d="M 258.5,168.5 C 258.5,170.167 258.5,171.833 258.5,173.5C 219.913,174.811 191.247,192.144 172.5,225.5C 171.624,225.631 170.957,225.298 170.5,224.5C 188.752,188.693 218.085,170.026 258.5,168.5 Z"/></g>
<g><path style="opacity:1" fill="#fca932" d="M 258.5,168.5 C 298.729,174.063 325.396,196.063 338.5,234.5C 340.262,234.643 341.929,234.309 343.5,233.5C 344.176,234.602 344.842,235.602 345.5,236.5C 348.895,273.7 335.895,303.7 306.5,326.5C 307.624,327.914 308.624,329.414 309.5,331C 290.611,341.983 270.278,345.983 248.5,343C 232.774,340.467 218.441,334.633 205.5,325.5C 204.108,326.605 202.941,327.939 202,329.5C 176.643,305.263 166.81,275.929 172.5,241.5C 174.26,237.453 175.26,233.12 175.5,228.5C 174.694,227.272 173.694,226.272 172.5,225.5C 191.247,192.144 219.913,174.811 258.5,173.5C 258.5,171.833 258.5,170.167 258.5,168.5 Z"/></g>
<g><path style="opacity:1" fill="#fde7c2" d="M 319.5,282.5 C 310.24,289.213 300.074,294.213 289,297.5C 288.167,297.167 287.333,296.833 286.5,296.5C 284.808,293.769 283.142,291.102 281.5,288.5C 281.5,287.833 281.5,287.167 281.5,286.5C 284.752,285.541 287.752,284.041 290.5,282C 290,281.5 289.5,281 289,280.5C 268.667,289.833 248.333,289.833 228,280.5C 226.513,281.253 226.346,282.086 227.5,283C 230.076,284.456 232.742,285.623 235.5,286.5C 235.5,287.167 235.5,287.833 235.5,288.5C 234.108,290.273 232.941,292.273 232,294.5C 230.883,296.124 229.383,297.124 227.5,297.5C 216.642,294.071 206.642,289.071 197.5,282.5C 195.366,257.05 201.699,233.717 216.5,212.5C 224.751,208.183 233.418,206.183 242.5,206.5C 243.136,208.795 244.469,210.461 246.5,211.5C 254.5,210.167 262.5,210.167 270.5,211.5C 272.531,210.461 273.864,208.795 274.5,206.5C 283.593,206.188 292.26,208.188 300.5,212.5C 309.02,224.214 314.854,237.214 318,251.5C 319.338,261.784 319.838,272.117 319.5,282.5 Z"/></g>
<g><path style="opacity:1" fill="#dfa13f" d="M 175.5,228.5 C 175.26,233.12 174.26,237.453 172.5,241.5C 172.74,236.88 173.74,232.547 175.5,228.5 Z"/></g>
<g><path style="opacity:1" fill="#dea13f" d="M 133.5,239.5 C 135.854,239.838 138.187,240.338 140.5,241C 139.62,242.356 139.286,243.856 139.5,245.5C 137.5,245.167 135.5,244.833 133.5,244.5C 133.5,242.833 133.5,241.167 133.5,239.5 Z"/></g>
<g><path style="opacity:1" fill="#dfa141" d="M 248.5,254.5 C 244.101,247.016 238.268,245.682 231,250.5C 229.293,252.909 228.46,255.575 228.5,258.5C 227.066,252.677 229.066,248.177 234.5,245C 242.277,243.613 246.943,246.78 248.5,254.5 Z"/></g>
<g><path style="opacity:1" fill="#dfa141" d="M 288.5,259.5 C 288.69,250.522 284.357,246.689 275.5,248C 272.642,249.694 270.309,251.861 268.5,254.5C 271.33,244.499 277.163,242.165 286,247.5C 289.299,251.148 290.132,255.148 288.5,259.5 Z"/></g>
<g><path style="opacity:1" fill="#fca932" d="M 248.5,254.5 C 248.182,265.483 242.848,269.316 232.5,266C 229.976,264.117 228.642,261.617 228.5,258.5C 228.46,255.575 229.293,252.909 231,250.5C 238.268,245.682 244.101,247.016 248.5,254.5 Z"/></g>
<g><path style="opacity:1" fill="#fca932" d="M 288.5,259.5 C 286.329,266.421 281.663,268.921 274.5,267C 269.937,264.041 267.937,259.874 268.5,254.5C 270.309,251.861 272.642,249.694 275.5,248C 284.357,246.689 288.69,250.522 288.5,259.5 Z"/></g>
<g><path style="opacity:1" fill="#dea13f" d="M 376.5,272.5 C 372.348,297.798 362.015,320.131 345.5,339.5C 344.152,338.473 343.652,337.14 344,335.5C 360.135,317.23 370.968,296.23 376.5,272.5 Z"/></g>
<g><path style="opacity:1" fill="#dea040" d="M 281.5,286.5 C 266.172,291.833 250.838,291.833 235.5,286.5C 232.742,285.623 230.076,284.456 227.5,283C 226.346,282.086 226.513,281.253 228,280.5C 248.333,289.833 268.667,289.833 289,280.5C 289.5,281 290,281.5 290.5,282C 287.752,284.041 284.752,285.541 281.5,286.5 Z"/></g>
<g><path style="opacity:1" fill="#dea040" d="M 197.5,282.5 C 206.642,289.071 216.642,294.071 227.5,297.5C 229.383,297.124 230.883,296.124 232,294.5C 232.941,292.273 234.108,290.273 235.5,288.5C 234.762,293.651 232.262,297.651 228,300.5C 217.036,297.352 207.036,292.352 198,285.5C 197.517,284.552 197.351,283.552 197.5,282.5 Z"/></g>
<g><path style="opacity:1" fill="#dea040" d="M 319.5,282.5 C 319.703,284.39 319.037,285.89 317.5,287C 308.715,292.975 299.215,297.475 289,300.5C 284.738,297.651 282.238,293.651 281.5,288.5C 283.142,291.102 284.808,293.769 286.5,296.5C 287.333,296.833 288.167,297.167 289,297.5C 300.074,294.213 310.24,289.213 319.5,282.5 Z"/></g>
<g><path style="opacity:1" fill="#dea13f" d="M 141.5,286.5 C 144.884,298.956 149.717,310.956 156,322.5C 167.54,342.877 183.707,358.211 204.5,368.5C 204.819,370.75 204.319,372.75 203,374.5C 169.43,354.378 148.93,325.045 141.5,286.5 Z"/></g>
<g><path style="opacity:1" fill="#dfa140" d="M 347.5,342.5 C 347.896,345.044 347.229,347.211 345.5,349C 303.094,383.36 257.094,389.193 207.5,366.5C 206.261,366.942 205.261,367.609 204.5,368.5C 203.908,365.359 204.908,363.026 207.5,361.5C 258.147,384.502 304.813,378.169 347.5,342.5 Z"/></g>
</svg>
