<svg width="299pt" height="37pt" viewBox="0 0 299 37" xmlns="http://www.w3.org/2000/svg"><g id="fontsvg1742062784514" stroke-linecap="round" fill-rule="evenodd" fill="#000000"><path d="M 154.15 36.35 L 158.15 35.55 A 1565.396 1565.396 0 0 1 156.42 27.15 A 1400.617 1400.617 0 0 1 155.875 24.45 Q 154.8 19.1 153.8 14 A 1172.761 1172.761 0 0 1 153.333 11.581 Q 152.681 8.188 152.325 6.2 Q 151.877 3.699 151.807 3.336 A 4.866 4.866 0 0 0 151.8 3.3 L 148.1 3 A 0.804 0.804 0 0 0 148.062 3.069 Q 147.893 3.399 147.155 5.086 A 328.32 328.32 0 0 0 147.05 5.325 A 2717.626 2717.626 0 0 0 146.519 6.542 Q 145.913 7.931 145.068 9.872 A 12148.433 12148.433 0 0 0 144.25 11.75 A 2186.458 2186.458 0 0 1 141.089 18.977 A 1980.789 1980.789 0 0 1 140.65 19.975 A 776.28 776.28 0 0 1 137.202 27.696 L 137.2 27.7 L 137.05 27.7 Q 134.9 22.9 133 18.7 Q 131.1 14.5 129.5 10.85 A 3139.299 3139.299 0 0 0 128.745 9.13 Q 127.681 6.706 127.025 5.225 Q 126.199 3.361 126.064 3.034 A 3.134 3.134 0 0 1 126.05 3 L 122.2 3.55 Q 122.115 3.934 121.683 6.033 A 1818.447 1818.447 0 0 0 121.525 6.8 A 703.264 703.264 0 0 1 121.205 8.35 Q 120.841 10.103 120.337 12.494 A 2820.817 2820.817 0 0 1 119.85 14.8 Q 118.8 19.95 117.675 25.125 Q 116.55 30.3 115.3 35.6 L 119.05 36.3 Q 119.9 31.6 120.75 27.15 Q 121.6 22.7 122.55 18.3 Q 124.3 10.241 124.481 9.095 A 2.218 2.218 0 0 0 124.5 8.95 L 124.55 8.95 Q 124.9 9.6 125.925 11.875 A 2465.854 2465.854 0 0 1 126.483 13.114 Q 127.105 14.497 127.92 16.311 A 8259.229 8259.229 0 0 1 128.7 18.05 A 1385.062 1385.062 0 0 1 131.241 23.745 A 1235.192 1235.192 0 0 1 132.05 25.575 Q 133.65 29.2 135.1 32.55 L 138.5 32.55 Q 140.05 28.9 141.65 25.3 L 144.85 18.1 A 4107.508 4107.508 0 0 1 145.638 16.383 Q 146.763 13.931 147.55 12.225 A 289.485 289.485 0 0 1 148.041 11.167 Q 148.691 9.773 149.062 9.026 A 34.235 34.235 0 0 1 149.1 8.95 L 149.15 8.95 L 154.15 36.35 Z M 206.7 36.05 L 210.6 36.05 A 2.469 2.469 0 0 0 210.6 36.013 Q 210.597 35.844 210.575 35.1 L 210.5 32.55 A 125.522 125.522 0 0 1 210.464 31.033 Q 210.452 30.319 210.45 29.681 A 74.829 74.829 0 0 1 210.45 29.5 L 210.45 27 Q 210.45 25.748 210.49 23.855 A 287.392 287.392 0 0 1 210.5 23.4 A 170.624 170.624 0 0 0 210.53 21.616 Q 210.54 20.818 210.545 19.926 A 343.188 343.188 0 0 0 210.55 18.05 A 10.099 10.099 0 0 0 210.325 15.855 Q 209.991 14.351 209.156 13.241 A 6.079 6.079 0 0 0 208.65 12.65 Q 206.75 10.7 203.6 10.7 A 7.507 7.507 0 0 0 202.48 10.792 Q 201.327 10.966 199.85 11.475 A 20.933 20.933 0 0 0 198.327 12.074 Q 196.522 12.859 194.15 14.2 L 194.1 14.15 L 194.15 11.35 L 190.3 11.35 Q 190.4 15.25 190.4 18.7 L 190.4 24.65 Q 190.4 28.938 190.371 31.598 A 222.759 222.759 0 0 1 190.35 33.075 A 5008.416 5008.416 0 0 0 190.338 33.739 Q 190.306 35.604 190.301 35.969 A 8.045 8.045 0 0 0 190.3 36.05 L 194.2 36.05 Q 194.2 35.956 194.178 35.015 A 842.988 842.988 0 0 0 194.175 34.9 A 1275.81 1275.81 0 0 0 194.161 34.316 Q 194.145 33.652 194.122 32.735 A 5396.945 5396.945 0 0 0 194.1 31.85 Q 194.05 29.85 194.05 28.15 L 194.05 25 L 194.05 20.2 Q 194.088 19.205 194.097 18.532 A 28.768 28.768 0 0 0 194.1 18.15 L 194.1 17.3 A 34.231 34.231 0 0 1 197.309 15.592 A 29.557 29.557 0 0 1 198.55 15.05 Q 200.75 14.15 202.25 14.15 Q 204.7 14.15 205.7 15.35 A 3.552 3.552 0 0 1 206.273 16.363 Q 206.717 17.524 206.75 19.4 A 9.72 9.72 0 0 1 206.776 19.783 Q 206.797 20.182 206.8 20.72 A 33.919 33.919 0 0 1 206.8 20.9 L 206.8 23.05 L 206.8 26.8 L 206.8 28.45 Q 206.8 29.523 206.76 31.157 A 215.861 215.861 0 0 1 206.75 31.55 L 206.75 34.6 A 38.302 38.302 0 0 1 206.748 35.045 Q 206.741 35.647 206.713 35.938 A 2.401 2.401 0 0 1 206.7 36.05 Z M 256.1 36.05 L 259.85 36.05 Q 259.816 33.953 259.805 32.305 A 216.282 216.282 0 0 1 259.8 30.9 Q 259.8 28.75 259.75 27.6 L 259.75 22.05 A 540.544 540.544 0 0 1 259.754 20.039 Q 259.759 18.469 259.775 17.25 A 426.261 426.261 0 0 0 259.786 16.322 Q 259.798 15.186 259.8 14.361 A 126.983 126.983 0 0 0 259.8 14.1 A 103.725 103.725 0 0 1 259.802 13.513 Q 259.806 12.688 259.825 12.2 Q 259.85 11.55 259.85 11.35 L 256 11.35 L 256 12.5 Q 256 13.227 256.029 14.453 A 207.009 207.009 0 0 0 256.05 15.25 Q 256.1 17 256.1 18.55 L 256.1 21.4 A 838.118 838.118 0 0 1 256.096 23.904 Q 256.091 25.859 256.075 27.375 Q 256.05 29.8 256.05 30.05 A 10.919 10.919 0 0 1 255.143 30.663 Q 254.164 31.261 252.731 31.929 A 41.586 41.586 0 0 1 252.25 32.15 A 17.275 17.275 0 0 1 250.329 32.845 Q 249.355 33.129 248.474 33.236 A 8.526 8.526 0 0 1 247.45 33.3 A 5.157 5.157 0 0 1 246.304 33.181 Q 245.532 33.005 244.981 32.568 A 2.951 2.951 0 0 1 244.4 31.95 A 4.363 4.363 0 0 1 243.853 30.839 Q 243.433 29.603 243.4 27.7 L 243.4 26.3 A 39.977 39.977 0 0 0 243.393 25.576 Q 243.387 25.254 243.376 24.897 A 76.006 76.006 0 0 0 243.35 24.15 L 243.35 19.95 L 243.35 17.75 Q 243.35 16.45 243.4 14.85 Q 243.45 13.25 243.45 12.4 L 243.45 11.35 L 239.55 11.35 L 239.55 12.5 Q 239.55 13.189 239.579 14.318 A 169.46 169.46 0 0 0 239.6 15.05 A 256.166 256.166 0 0 1 239.644 16.594 A 204.016 204.016 0 0 1 239.675 18.025 A 162.841 162.841 0 0 1 239.693 19.293 Q 239.7 19.893 239.7 20.429 A 97.835 97.835 0 0 1 239.7 20.5 L 239.7 22.1 A 45.289 45.289 0 0 1 239.693 22.869 Q 239.687 23.213 239.676 23.595 A 89.954 89.954 0 0 1 239.65 24.4 Q 239.6 25.75 239.6 26.9 L 239.6 29.05 A 11.143 11.143 0 0 0 239.807 31.268 Q 240.082 32.622 240.723 33.663 A 6.099 6.099 0 0 0 241.525 34.7 A 6.361 6.361 0 0 0 244.934 36.523 A 9.365 9.365 0 0 0 246.8 36.7 A 10.922 10.922 0 0 0 250.196 36.139 A 13.822 13.822 0 0 0 251.8 35.5 A 51.063 51.063 0 0 0 253.044 34.906 A 40.128 40.128 0 0 0 254.175 34.325 A 30.979 30.979 0 0 0 255.194 33.756 A 23.449 23.449 0 0 0 256.1 33.2 L 256.1 36.05 Z M 73.75 3.35 L 74.95 3.35 L 74.5 0.25 L 73.15 0.25 Q 70.824 0.25 69.099 0.731 A 9.226 9.226 0 0 0 68.15 1.05 Q 66.203 1.829 65.014 3.034 A 6.791 6.791 0 0 0 64.95 3.1 A 9.772 9.772 0 0 0 63.665 4.8 A 7.988 7.988 0 0 0 62.975 6.3 A 10.646 10.646 0 0 0 62.51 8.355 A 14.056 14.056 0 0 0 62.4 10.15 L 62.4 11.35 L 57.6 11.35 L 57.6 14.2 L 62.4 14.2 L 62.4 22.2 Q 62.4 25.9 62.35 29.2 Q 62.3 32.45 62.3 34.15 L 62.3 36.05 L 66.15 36.05 L 66.15 34.1 Q 66.15 32.722 66.121 30.406 A 736.225 736.225 0 0 0 66.1 28.9 L 66.1 14.2 L 74.4 14.2 L 74.4 11.35 L 66.1 11.35 L 66.1 10.25 A 11.046 11.046 0 0 1 66.213 8.635 A 8.531 8.531 0 0 1 66.525 7.275 A 6.045 6.045 0 0 1 66.932 6.293 Q 67.221 5.747 67.605 5.344 A 3.617 3.617 0 0 1 67.75 5.2 Q 68.8 4.2 70.125 3.775 A 7.324 7.324 0 0 1 71.125 3.537 Q 72.223 3.35 73.75 3.35 Z M 36.7 22.8 L 54.35 22.8 A 22.127 22.127 0 0 0 54.222 20.353 Q 54.085 19.121 53.8 18.066 A 11.921 11.921 0 0 0 53.575 17.325 A 12.361 12.361 0 0 0 52.47 14.92 A 10.311 10.311 0 0 0 51.4 13.45 A 8.824 8.824 0 0 0 46.295 10.852 A 12.564 12.564 0 0 0 44.3 10.7 Q 42 10.7 39.875 11.6 Q 37.75 12.5 36.3 14.15 A 14.709 14.709 0 0 0 34.178 17.432 A 13.5 13.5 0 0 0 33.8 18.325 Q 32.95 20.55 32.95 23.4 A 12.446 12.446 0 0 0 33.336 26.551 A 10.657 10.657 0 0 0 34.075 28.55 A 14.49 14.49 0 0 0 35.404 30.768 A 11.46 11.46 0 0 0 36.8 32.35 Q 38.65 34.1 41.525 35.125 Q 44.114 36.048 47.574 36.14 A 29.23 29.23 0 0 0 48.35 36.15 A 71.421 71.421 0 0 0 49.552 36.14 Q 50.099 36.131 50.584 36.113 A 39.332 39.332 0 0 0 50.9 36.1 Q 51.951 36.052 52.18 36.004 A 0.51 0.51 0 0 0 52.2 36 L 52.65 32.75 Q 52.416 32.797 51.372 32.844 A 65.134 65.134 0 0 1 51.225 32.85 Q 50.05 32.9 48.65 32.9 A 24.411 24.411 0 0 1 46.843 32.837 Q 45.912 32.768 45.108 32.623 A 12.393 12.393 0 0 1 44.3 32.45 A 11.308 11.308 0 0 1 42.158 31.689 A 9.665 9.665 0 0 1 41.1 31.1 A 9.374 9.374 0 0 1 39.004 29.352 A 8.051 8.051 0 0 1 37.8 27.55 A 10.938 10.938 0 0 1 36.74 23.602 A 12.918 12.918 0 0 1 36.7 22.8 Z M 166.2 22.8 L 183.85 22.8 A 22.127 22.127 0 0 0 183.722 20.353 Q 183.585 19.121 183.3 18.066 A 11.921 11.921 0 0 0 183.075 17.325 A 12.361 12.361 0 0 0 181.97 14.92 A 10.311 10.311 0 0 0 180.9 13.45 A 8.824 8.824 0 0 0 175.795 10.852 A 12.564 12.564 0 0 0 173.8 10.7 Q 171.5 10.7 169.375 11.6 Q 167.25 12.5 165.8 14.15 A 14.709 14.709 0 0 0 163.678 17.432 A 13.5 13.5 0 0 0 163.3 18.325 Q 162.45 20.55 162.45 23.4 A 12.446 12.446 0 0 0 162.836 26.551 A 10.657 10.657 0 0 0 163.575 28.55 A 14.49 14.49 0 0 0 164.904 30.768 A 11.46 11.46 0 0 0 166.3 32.35 Q 168.15 34.1 171.025 35.125 Q 173.614 36.048 177.074 36.14 A 29.23 29.23 0 0 0 177.85 36.15 A 71.421 71.421 0 0 0 179.052 36.14 Q 179.599 36.131 180.084 36.113 A 39.332 39.332 0 0 0 180.4 36.1 Q 181.451 36.052 181.68 36.004 A 0.51 0.51 0 0 0 181.7 36 L 182.15 32.75 Q 181.916 32.797 180.872 32.844 A 65.134 65.134 0 0 1 180.725 32.85 Q 179.55 32.9 178.15 32.9 A 24.411 24.411 0 0 1 176.343 32.837 Q 175.412 32.768 174.608 32.623 A 12.393 12.393 0 0 1 173.8 32.45 A 11.308 11.308 0 0 1 171.658 31.689 A 9.665 9.665 0 0 1 170.6 31.1 A 9.374 9.374 0 0 1 168.504 29.352 A 8.051 8.051 0 0 1 167.3 27.55 A 10.938 10.938 0 0 1 166.24 23.602 A 12.918 12.918 0 0 1 166.2 22.8 Z M 270.15 22.8 L 287.8 22.8 A 22.127 22.127 0 0 0 287.672 20.353 Q 287.535 19.121 287.25 18.066 A 11.921 11.921 0 0 0 287.025 17.325 A 12.361 12.361 0 0 0 285.92 14.92 A 10.311 10.311 0 0 0 284.85 13.45 A 8.824 8.824 0 0 0 279.745 10.852 A 12.564 12.564 0 0 0 277.75 10.7 Q 275.45 10.7 273.325 11.6 Q 271.2 12.5 269.75 14.15 A 14.709 14.709 0 0 0 267.628 17.432 A 13.5 13.5 0 0 0 267.25 18.325 Q 266.4 20.55 266.4 23.4 A 12.446 12.446 0 0 0 266.786 26.551 A 10.657 10.657 0 0 0 267.525 28.55 A 14.49 14.49 0 0 0 268.854 30.768 A 11.46 11.46 0 0 0 270.25 32.35 Q 272.1 34.1 274.975 35.125 Q 277.564 36.048 281.024 36.14 A 29.23 29.23 0 0 0 281.8 36.15 A 71.421 71.421 0 0 0 283.002 36.14 Q 283.549 36.131 284.034 36.113 A 39.332 39.332 0 0 0 284.35 36.1 Q 285.401 36.052 285.63 36.004 A 0.51 0.51 0 0 0 285.65 36 L 286.1 32.75 Q 285.866 32.797 284.822 32.844 A 65.134 65.134 0 0 1 284.675 32.85 Q 283.5 32.9 282.1 32.9 A 24.411 24.411 0 0 1 280.293 32.837 Q 279.362 32.768 278.558 32.623 A 12.393 12.393 0 0 1 277.75 32.45 A 11.308 11.308 0 0 1 275.608 31.689 A 9.665 9.665 0 0 1 274.55 31.1 A 9.374 9.374 0 0 1 272.454 29.352 A 8.051 8.051 0 0 1 271.25 27.55 A 10.938 10.938 0 0 1 270.19 23.602 A 12.918 12.918 0 0 1 270.15 22.8 Z M 2.2 3.35 L 0 3.35 A 845.099 845.099 0 0 1 0.061 7.515 Q 0.1 10.769 0.1 13.3 L 0.1 20.05 L 0.1 25.1 Q 0.1 27.7 0.05 30.5 Q 0 33.25 0 34.65 L 0 36.1 L 0.5 36.1 Q 0.845 36.1 1.424 36.129 A 46.21 46.21 0 0 1 1.8 36.15 A 28.445 28.445 0 0 0 3.249 36.199 A 25.903 25.903 0 0 0 3.45 36.2 L 5.15 36.2 A 39.36 39.36 0 0 0 9.329 35.989 A 28.636 28.636 0 0 0 13.275 35.3 A 24.417 24.417 0 0 0 18.162 33.52 A 21.731 21.731 0 0 0 19.75 32.65 Q 23.2 30.7 25.275 27.475 A 13.009 13.009 0 0 0 27.22 22.005 A 16.634 16.634 0 0 0 27.35 19.9 A 17.913 17.913 0 0 0 26.976 16.157 A 13.655 13.655 0 0 0 25.65 12.5 A 13.564 13.564 0 0 0 22.783 8.895 A 18.179 18.179 0 0 0 20.35 7.05 Q 17.2 5.1 13.325 4.2 A 32.718 32.718 0 0 0 9.423 3.554 Q 7.429 3.34 5.188 3.306 A 56.093 56.093 0 0 0 4.35 3.3 L 3.7 3.3 Q 3.317 3.3 2.641 3.329 A 66.891 66.891 0 0 0 2.2 3.35 Z M 232.15 14.5 L 231.9 11.25 Q 231.772 11.25 231.06 11.214 A 189.681 189.681 0 0 1 230.8 11.2 Q 229.85 11.15 228.35 11.15 A 23.486 23.486 0 0 0 225.029 11.392 A 25.571 25.571 0 0 0 224.975 11.4 Q 223.25 11.65 221.8 12.45 Q 220.1 13.3 219.125 14.75 Q 218.15 16.2 218.15 18 Q 218.15 19.8 219.025 21.175 A 7.156 7.156 0 0 0 220.528 22.853 A 9.14 9.14 0 0 0 221.5 23.55 Q 222.1 23.9 222.85 24.25 Q 223.6 24.6 224.35 24.975 Q 225.1 25.35 225.825 25.7 A 11.205 11.205 0 0 1 226.411 26.004 Q 226.678 26.152 226.904 26.301 A 6.154 6.154 0 0 1 227.05 26.4 A 6.851 6.851 0 0 1 227.715 26.859 Q 228.153 27.204 228.45 27.575 Q 228.95 28.2 228.95 29.2 A 3.218 3.218 0 0 1 228.554 30.814 Q 228.174 31.484 227.431 31.957 A 5.2 5.2 0 0 1 226.55 32.4 A 5.006 5.006 0 0 1 225.81 32.674 Q 225.173 32.859 224.35 32.95 A 32.724 32.724 0 0 1 223.555 33.029 Q 222.747 33.099 222.169 33.1 A 9.647 9.647 0 0 1 222.15 33.1 Q 221.4 33.1 220.65 33.075 Q 219.9 33.05 219.225 33 Q 218.566 32.951 218.122 32.902 A 16.83 16.83 0 0 1 218.1 32.9 Q 217.65 32.85 217.5 32.85 L 217.65 36.05 Q 217.75 36.05 218.15 36.1 A 8.78 8.78 0 0 0 218.475 36.134 Q 218.766 36.159 219.125 36.175 A 33.621 33.621 0 0 1 219.719 36.206 A 40.528 40.528 0 0 1 220.35 36.25 Q 221 36.3 221.6 36.3 A 22.066 22.066 0 0 0 224.23 36.15 A 17.557 17.557 0 0 0 226.1 35.825 A 12.67 12.67 0 0 0 227.89 35.275 A 9.41 9.41 0 0 0 229.6 34.4 Q 231.05 33.55 231.925 32.125 A 5.959 5.959 0 0 0 232.792 29.234 A 7.197 7.197 0 0 0 232.8 28.9 A 6.051 6.051 0 0 0 232.575 27.219 A 5.029 5.029 0 0 0 231.9 25.775 A 7.209 7.209 0 0 0 230.718 24.445 Q 230.136 23.927 229.399 23.462 A 12.063 12.063 0 0 0 229.3 23.4 A 8.397 8.397 0 0 0 228.995 23.219 Q 228.836 23.129 228.65 23.03 A 19.724 19.724 0 0 0 228.25 22.825 A 56.844 56.844 0 0 0 227.643 22.526 Q 227.332 22.375 226.985 22.211 A 97.273 97.273 0 0 0 226.75 22.1 A 52.026 52.026 0 0 1 225.944 21.712 A 37.908 37.908 0 0 1 225.225 21.35 Q 224.645 21.049 224.194 20.785 A 15.354 15.354 0 0 1 224.05 20.7 Q 223.2 20.2 222.575 19.5 A 2.444 2.444 0 0 1 221.951 17.893 A 3.134 3.134 0 0 1 221.95 17.8 A 2.437 2.437 0 0 1 222.092 16.997 Q 222.196 16.698 222.376 16.391 A 4.193 4.193 0 0 1 222.4 16.35 A 2.89 2.89 0 0 1 222.965 15.681 Q 223.35 15.338 223.9 15.05 Q 224.502 14.749 225.325 14.559 A 9.56 9.56 0 0 1 225.6 14.5 A 10.343 10.343 0 0 1 227.029 14.321 A 12.43 12.43 0 0 1 227.75 14.3 Q 229.35 14.3 230.675 14.4 A 263.543 263.543 0 0 0 230.988 14.423 Q 231.952 14.495 232.129 14.5 A 0.811 0.811 0 0 0 232.15 14.5 Z M 294.55 36.05 L 298.4 36.05 L 298.4 34.5 Q 298.4 33.39 298.371 31.488 A 508.301 508.301 0 0 0 298.35 30.25 Q 298.3 27.45 298.3 24.25 L 298.3 17.3 L 298.3 8.95 Q 298.35 6.45 298.35 4.3 Q 298.35 2.15 298.4 0.25 L 294.55 0.25 Q 294.6 5.85 294.625 10.25 A 2061.37 2061.37 0 0 1 294.636 12.356 Q 294.649 15.175 294.65 17.257 A 699.278 699.278 0 0 1 294.65 17.55 L 294.65 22.65 Q 294.65 25.45 294.6 28.9 Q 294.55 32.35 294.55 34.15 L 294.55 36.05 Z M 5.25 32.95 L 4 32.95 Q 3.95 25.9 3.95 22 L 3.95 17 L 3.95 13 Q 3.95 10.577 3.995 6.935 A 907.131 907.131 0 0 1 4 6.55 L 5.3 6.55 A 23.373 23.373 0 0 1 7.227 6.633 A 27.663 27.663 0 0 1 8.15 6.725 A 34.59 34.59 0 0 1 10.09 7.01 A 42.583 42.583 0 0 1 11.35 7.25 Q 14.7 7.95 17.5 9.65 A 13.828 13.828 0 0 1 19.809 11.412 A 10.248 10.248 0 0 1 21.85 14.1 A 12.137 12.137 0 0 1 23.188 19.263 A 14.351 14.351 0 0 1 23.2 19.85 A 12.893 12.893 0 0 1 22.879 22.794 A 9.7 9.7 0 0 1 21.525 25.975 A 13.073 13.073 0 0 1 17.778 29.669 A 15.548 15.548 0 0 1 17 30.15 A 15.019 15.019 0 0 1 15.518 30.914 A 18.594 18.594 0 0 1 14.525 31.325 A 20.956 20.956 0 0 1 12.175 32.063 A 23.58 23.58 0 0 1 11.6 32.2 Q 10.05 32.55 8.425 32.75 A 26.05 26.05 0 0 1 5.347 32.95 A 24.094 24.094 0 0 1 5.25 32.95 Z M 79.45 36.05 L 83.3 36.05 A 1.709 1.709 0 0 0 83.3 36.024 Q 83.297 35.904 83.281 35.295 A 1044.105 1044.105 0 0 0 83.275 35.075 Q 83.25 34.15 83.225 32.5 Q 83.208 31.366 83.191 29.924 A 1306.938 1306.938 0 0 1 83.175 28.55 A 406.192 406.192 0 0 1 83.156 26.114 Q 83.15 24.826 83.15 23.4 A 275.37 275.37 0 0 1 83.16 21.171 Q 83.169 20.034 83.187 18.776 A 462.623 462.623 0 0 1 83.2 17.925 Q 83.25 14.85 83.3 11.35 L 79.45 11.35 A 2345.879 2345.879 0 0 1 79.484 14.24 Q 79.509 16.525 79.525 18.4 Q 79.55 21.4 79.55 23.95 L 79.55 27.2 Q 79.55 28.942 79.503 31.105 A 250.465 250.465 0 0 1 79.5 31.25 Q 79.45 33.5 79.45 34.7 L 79.45 36.05 Z M 50.6 20.05 L 37 20.05 Q 37.7 17.05 39.525 15.325 A 6.26 6.26 0 0 1 43.489 13.622 A 8.295 8.295 0 0 1 44.1 13.6 A 7.121 7.121 0 0 1 46.084 13.863 A 5.457 5.457 0 0 1 48.525 15.325 Q 50.2 17.05 50.6 20.05 Z M 180.1 20.05 L 166.5 20.05 Q 167.2 17.05 169.025 15.325 A 6.26 6.26 0 0 1 172.989 13.622 A 8.295 8.295 0 0 1 173.6 13.6 A 7.121 7.121 0 0 1 175.584 13.863 A 5.457 5.457 0 0 1 178.025 15.325 Q 179.7 17.05 180.1 20.05 Z M 284.05 20.05 L 270.45 20.05 Q 271.15 17.05 272.975 15.325 A 6.26 6.26 0 0 1 276.939 13.622 A 8.295 8.295 0 0 1 277.55 13.6 A 7.121 7.121 0 0 1 279.534 13.863 A 5.457 5.457 0 0 1 281.975 15.325 Q 283.65 17.05 284.05 20.05 Z M 41.9 8.45 L 52.6 2.75 L 50.9 0 L 40.45 6.15 L 41.9 8.45 Z M 79.2 6.6 L 83.5 6.6 L 83.5 2.4 L 79.2 2.4 L 79.2 6.6 Z" vector-effect="non-scaling-stroke"/></g></svg>